<svg width="10" height="10" viewBox="0 0 160 112" fill="none" xmlns="http://www.w3.org/2000/svg">
<path d="M160 0H146.946L139.67 10.5524C138.814 9.0449 137.744 7.96813 136.674 6.676C131.966 2.15355 125.546 0 117.628 0H114.418C106.286 0 99.8658 2.15355 95.1578 6.676C90.4497 11.1984 88.0957 17.8744 88.0957 26.704V83.1269C88.0957 83.9884 88.0957 84.6344 88.0957 85.4959L70.1196 111.554H84.0297L92.1617 99.4939C93.0177 100.786 93.8738 101.863 94.9438 102.94C99.6518 107.462 106.072 109.616 114.204 109.616H117.414C125.332 109.616 131.752 107.462 136.46 102.94C141.168 98.4171 143.736 91.7411 143.736 82.9116V26.704C143.736 25.8426 143.736 24.9812 143.736 24.1197L160 0ZM130.468 86.1419C130.468 89.3722 129.184 92.1719 126.616 94.5408C124.262 96.9097 121.266 97.9864 117.414 97.9864H114.204C110.352 97.9864 107.356 96.9097 104.788 94.5408C102.648 92.1719 101.364 89.3722 101.364 86.1419L104.574 81.6195L130.468 43.717V86.1419ZM101.364 66.1139V23.689C101.364 20.4587 102.648 17.6591 105.002 15.2902C107.57 12.9213 110.566 11.6292 114.418 11.6292H117.628C121.48 11.6292 124.476 12.9213 126.83 15.2902C129.398 17.6591 130.682 20.6741 130.682 23.9044L101.364 66.1139Z" fill="#141414"/>
<path d="M126.796 94.6867C129.384 92.2937 130.677 89.4657 130.677 86.2026V43.3467L104.589 81.6342L101.354 86.2026C101.354 89.4657 102.648 92.2937 104.804 94.6867C107.392 97.0797 110.41 98.1674 114.291 98.1674H117.525C121.406 98.1674 124.425 97.0797 126.796 94.6867Z" fill="#FBD05E"/>
<path d="M101.354 23.6083V66.2948L130.677 23.825C130.677 20.5748 129.393 17.5412 126.825 15.1577C124.47 12.7742 121.474 11.4741 117.621 11.4741H114.411C110.558 11.4741 107.561 12.7742 104.993 15.1577C102.639 17.5412 101.354 20.3581 101.354 23.6083Z" fill="#70DFEE"/>
<path d="M90.5179 0H77.3713L70.0436 10.5524C69.1816 9.0449 68.104 7.96813 67.0264 6.676C62.2849 2.15355 55.8194 0 47.8452 0H44.6124C36.4227 0 29.9571 2.15355 25.2157 6.676C20.4743 11.1984 18.1036 17.8744 18.1036 26.704V83.1269C18.1036 83.9884 18.1036 84.6344 18.1036 85.4959L0 111.554H14.0087L22.1984 99.4939C23.0605 100.786 23.9226 101.863 25.0002 102.94C29.7416 107.462 36.2072 109.616 44.3969 109.616H47.6297C55.6039 109.616 62.0694 107.462 66.8108 102.94C71.5523 98.4171 74.1385 91.7411 74.1385 82.9116V26.704C74.1385 25.8426 74.1385 24.9812 74.1385 24.1197L90.5179 0ZM60.7763 86.1419C60.7763 89.3722 59.4832 92.1719 56.897 94.5408C54.5263 96.9097 51.509 97.9864 47.6297 97.9864H44.3969C40.5175 97.9864 37.5003 96.9097 34.914 94.5408C32.7589 92.1719 31.4657 89.3722 31.4657 86.1419L34.6985 81.6195L60.7763 43.717V86.1419ZM31.4657 66.1139V23.689C31.4657 20.4587 32.7589 17.6591 35.1296 15.2902C37.7158 12.9213 40.7331 11.6292 44.6124 11.6292H47.8452C51.7245 11.6292 54.7418 12.9213 57.1125 15.2902C59.6987 17.6591 60.9918 20.6741 60.9918 23.9044L31.4657 66.1139Z" fill="#141414"/>
<path d="M56.6769 94.6867C59.2642 92.2937 60.5578 89.4657 60.5578 86.2026V43.3467L34.4692 81.6342L31.2351 86.2026C31.2351 89.4657 32.5288 92.2937 34.6848 94.6867C37.2721 97.0797 40.2907 98.1674 44.1716 98.1674H47.4057C51.2867 98.1674 54.3052 97.0797 56.6769 94.6867Z" fill="#81ECA5"/>
<path d="M31.2351 23.6083V66.2948L61.1953 23.825C61.1953 20.5748 59.8832 17.5412 57.2589 15.1577C54.8533 12.7742 51.7917 11.4741 47.8553 11.4741H44.575C40.6387 11.4741 37.577 12.7742 34.9528 15.1577C32.5472 17.5412 31.2351 20.3581 31.2351 23.6083Z" fill="#F284F5"/>
</svg>
